<?xml version="1.0" standalone="no"?>
<!DOCTYPE svg PUBLIC "-//W3C//DTD SVG 20010904//EN"
 "http://www.w3.org/TR/2001/REC-SVG-20010904/DTD/svg10.dtd">
<svg version="1.0" xmlns="http://www.w3.org/2000/svg"
 width="512.000000pt" height="512.000000pt" viewBox="0 0 512.000000 512.000000"
 preserveAspectRatio="xMidYMid meet">
<metadata>
Created by potrace 1.14, written by Peter Selinger 2001-2017
</metadata>
<g transform="translate(0.000000,512.000000) scale(0.100000,-0.100000)"
fill="#000000" stroke="none">
<path d="M2418 5110 c-160 -23 -290 -100 -356 -211 -54 -90 -52 -27 -52 -1697
l0 -1544 -83 -81 c-186 -182 -278 -397 -279 -652 -1 -217 60 -400 187 -564
179 -231 432 -354 725 -354 293 0 546 123 725 354 127 164 188 347 187 564 -1
255 -93 470 -279 652 l-83 81 0 1540 c0 999 -4 1558 -10 1593 -29 153 -137
259 -308 305 -70 18 -284 26 -374 14z m369 -98 c81 -26 154 -73 188 -121 58
-85 55 4 55 -1710 l0 -1576 54 -43 c144 -112 255 -299 292 -490 97 -508 -297
-982 -816 -982 -519 0 -913 474 -816 982 37 191 148 378 292 490 l54 43 0
1571 c0 1709 -3 1620 56 1705 49 71 167 132 289 149 97 14 281 4 352 -18z"/>
<path d="M2280 4586 c-6 -8 -10 -25 -8 -38 l3 -23 285 0 285 0 3 23 c7 51 0
52 -288 52 -221 0 -270 -3 -280 -14z"/>
<path d="M2538 4419 c-21 -12 -23 -42 -4 -58 9 -8 61 -11 162 -9 147 3 149 3
152 26 7 46 -10 52 -157 52 -75 0 -144 -5 -153 -11z"/>
<path d="M2280 4246 c-6 -8 -10 -25 -8 -38 l3 -23 285 0 285 0 3 23 c7 51 0
52 -288 52 -221 0 -270 -3 -280 -14z"/>
<path d="M2538 4079 c-21 -12 -23 -42 -4 -58 9 -8 61 -11 162 -9 147 3 149 3
152 26 7 46 -10 52 -157 52 -75 0 -144 -5 -153 -11z"/>
<path d="M2280 3906 c-6 -8 -10 -25 -8 -38 l3 -23 285 0 285 0 3 23 c7 51 0
52 -288 52 -221 0 -270 -3 -280 -14z"/>
<path d="M2538 3739 c-21 -12 -23 -42 -4 -58 9 -8 61 -11 162 -9 147 3 149 3
152 26 7 46 -10 52 -157 52 -75 0 -144 -5 -153 -11z"/>
<path d="M2280 3566 c-6 -8 -10 -25 -8 -38 l3 -23 285 0 285 0 3 23 c7 51 0
52 -288 52 -221 0 -270 -3 -280 -14z"/>
<path d="M2538 3399 c-21 -12 -23 -42 -4 -58 9 -8 61 -11 162 -9 147 3 149 3
152 26 7 46 -10 52 -157 52 -75 0 -144 -5 -153 -11z"/>
<path d="M2280 3226 c-6 -8 -10 -25 -8 -38 l3 -23 285 0 285 0 3 23 c7 51 0
52 -288 52 -221 0 -270 -3 -280 -14z"/>
<path d="M2538 3059 c-21 -12 -23 -42 -4 -58 9 -8 61 -11 162 -9 147 3 149 3
152 26 7 46 -10 52 -157 52 -75 0 -144 -5 -153 -11z"/>
<path d="M2280 2886 c-6 -8 -10 -25 -8 -38 l3 -23 285 0 285 0 3 23 c7 51 0
52 -288 52 -221 0 -270 -3 -280 -14z"/>
<path d="M2325 2684 c-71 -39 -65 14 -65 -615 l0 -567 -37 -23 c-195 -117
-313 -327 -313 -556 0 -122 13 -180 65 -288 111 -231 327 -367 585 -367 258 0
474 136 585 367 52 108 65 166 65 288 0 229 -118 439 -312 556 l-38 23 0 569
c0 313 -2 569 -5 569 -2 0 -24 -10 -47 -22 -33 -18 -60 -23 -114 -23 -67 0
-74 2 -150 49 -65 41 -89 50 -134 53 -38 2 -64 -2 -85 -13z m604 -1554 c37
-26 71 -90 71 -135 0 -45 -34 -109 -70 -135 -39 -28 -117 -38 -160 -20 -41 17
-87 72 -99 118 -18 65 16 144 78 181 49 29 133 25 180 -9z"/>
</g>
</svg>
